<svg width="228" height="190" viewBox="0 0 228 190" fill="none" xmlns="http://www.w3.org/2000/svg">
<g opacity="0.8">
<path fillRule="evenodd" clipRule="evenodd" d="M187.537 0H204.761L218.286 17.1901L209.61 28.1409L187.537 0ZM221.984 12.477L226.578 6.61961C228.619 3.94559 226.833 0.125553 223.388 0.125553H212.287L221.984 12.477ZM138.03 39.4723L129.609 50.1684L160.996 90.2787C161.06 90.215 161.092 90.1514 161.124 90.0877C161.155 90.0241 161.187 89.9604 161.251 89.8967L169.417 79.5826L138.03 39.4723ZM192.256 189.599H208.077L113.66 70.6683L105.749 80.6003L192.256 189.599ZM215.605 189.603L117.36 65.8335L125.909 55.0101L226.833 183.618C228.237 186.292 226.578 189.603 223.388 189.603H215.605ZM153.979 19.098L162.4 8.40192L193.788 48.385L185.367 59.0811L153.979 19.098ZM150.28 23.8089L141.731 34.7597L173.118 74.7427L181.667 63.7919L150.28 23.8089ZM102.05 85.4422L98.6046 89.899C96.308 92.8276 96.308 97.0297 98.6046 99.9584L166.611 186.673C168.142 188.583 170.438 189.729 172.99 189.729H184.856L102.05 85.4422ZM172.99 0H180.135L205.908 32.8523L197.615 43.5484L166.227 3.56536L166.61 3.05603C168.141 1.14601 170.566 0 172.99 0Z" fill="url(#paint0_linear)"/>
</g>
<path d="M66.1897 89.7761C68.4864 92.7048 68.4864 96.9069 66.1897 99.8356L0.863233 183.112C-1.17822 185.786 0.608052 189.606 4.053 189.606H54.579C57.0032 189.606 59.4274 188.46 60.9585 186.55L128.837 99.8356C131.133 96.9069 131.133 92.7048 128.837 89.7761L60.8309 3.0614C59.2998 1.15138 57.0032 0.00537109 54.4514 0.00537109H4.053C0.735643 0.00537109 -1.17822 3.95274 0.863233 6.49943L66.1897 89.7761Z" fill="url(#paint1_linear)"/>
<defs>
<linearGradient id="paint0_linear" x1="33" y1="138.5" x2="289.191" y2="248.024" gradientUnits="userSpaceOnUse">
<stop offset="0.000459006" stopColor="#3321FF" stopOpacity="0.44"/>
<stop offset="0.566791" stopColor="#52FFF5"/>
</linearGradient>
<linearGradient id="paint1_linear" x1="84" y1="-8.49999" x2="-63.3844" y2="31.0354" gradientUnits="userSpaceOnUse">
<stop stopColor="#52FFF5"/>
<stop offset="0.608468" stopColor="#3A71FF"/>
<stop offset="1" stopColor="#BD40F9"/>
</linearGradient>
</defs>
</svg>
